<svg width="48" height="48" viewBox="0 0 48 48" fill="none" xmlns="http://www.w3.org/2000/svg">
<g id="Group 333">
<circle id="Ellipse 1820" cx="24" cy="24" r="24" fill="#333333"/>
<path id="vector" fill-rule="evenodd" clip-rule="evenodd" d="M24 24.5C24 22.0147 26.0147 20 28.5 20C30.9853 20 33 22.0147 33 24.5C33 26.9853 30.9853 29 28.5 29C26.0147 29 24 26.9853 24 24.5Z" fill="#1ABCFE"/>
<path id="vector_2" fill-rule="evenodd" clip-rule="evenodd" d="M15 33.5C15 31.0147 17.0147 29 19.5 29H24V33.5C24 35.9853 21.9853 38 19.5 38C17.0147 38 15 35.9853 15 33.5Z" fill="#0ACF83"/>
<path id="vector_3" fill-rule="evenodd" clip-rule="evenodd" d="M24 11V20H28.5C30.9853 20 33 17.9853 33 15.5C33 13.0147 30.9853 11 28.5 11H24Z" fill="#FF7262"/>
<path id="vector_4" fill-rule="evenodd" clip-rule="evenodd" d="M15 15.5C15 17.9853 17.0147 20 19.5 20H24V11H19.5C17.0147 11 15 13.0147 15 15.5Z" fill="#F24E1E"/>
<path id="vector_5" fill-rule="evenodd" clip-rule="evenodd" d="M15 24.5C15 26.9853 17.0147 29 19.5 29H24V20H19.5C17.0147 20 15 22.0147 15 24.5Z" fill="#A259FF"/>
</g>
</svg>
