<svg width="48" height="48" viewBox="0 0 48 48" fill="none" xmlns="http://www.w3.org/2000/svg">
<g id="Group 330">
<circle id="Ellipse 1817" cx="24" cy="24" r="24" fill="#EE513B"/>
<path id="bg" d="M10.5854 25.4132C9.80488 24.6327 9.80488 23.3673 10.5854 22.5868L22.5868 10.5854C23.3673 9.80488 24.6327 9.80488 25.4132 10.5854L37.4146 22.5868C38.1951 23.3673 38.1951 24.6327 37.4146 25.4132L25.4132 37.4146C24.6327 38.1951 23.3673 38.1951 22.5868 37.4146L10.5854 25.4132Z" fill="white"/>
<path id="git" d="M20.1489 13.0615L18.9336 14.2769L22.0725 17.4158C21.9455 17.6882 21.8746 17.992 21.8746 18.3124C21.8746 19.222 22.4461 19.9981 23.2496 20.3012V27.9798C22.4461 28.2829 21.8746 29.059 21.8746 29.9686C21.8746 31.1422 22.826 32.0936 23.9996 32.0936C25.1732 32.0936 26.1246 31.1422 26.1246 29.9686C26.1246 29.144 25.6549 28.429 24.9684 28.0768V20.3117L27.9689 23.3122C27.8481 23.5791 27.7809 23.8754 27.7809 24.1874C27.7809 25.361 28.7323 26.3124 29.9059 26.3124C31.0795 26.3124 32.0309 25.361 32.0309 24.1874C32.0309 23.0138 31.0795 22.0624 29.9059 22.0624C29.6778 22.0624 29.4582 22.0983 29.2522 22.1648L26.0297 18.9423C26.0914 18.7433 26.1246 18.5317 26.1246 18.3124C26.1246 17.1388 25.1732 16.1874 23.9996 16.1874C23.7803 16.1874 23.5688 16.2206 23.3697 16.2823L20.1489 13.0615Z" fill="#EE513B"/>
</g>
</svg>
