<svg width="48" height="48" viewBox="0 0 48 48" fill="none" xmlns="http://www.w3.org/2000/svg">
<g id="Group 329">
<circle id="Ellipse 1816" cx="24" cy="24" r="24" fill="#FFCD4B"/>
<rect id="bg" x="10" y="10" width="28" height="28" fill="#FFCD4B"/>
<g id="js">
<path d="M27 33.2879L29.0615 31.9237C29.2231 32.4313 30.2462 33.6368 31.5385 33.6368C32.8308 33.6368 33.4308 32.931 33.4308 32.463C33.4308 31.1878 32.1112 30.7382 31.4774 30.5223C31.374 30.4871 31.289 30.4581 31.2308 30.4328C31.2009 30.4198 31.1558 30.4025 31.0979 30.3804C30.393 30.1111 27.7923 29.1175 27.7923 26.2373C27.7923 23.065 30.8538 22.7002 31.5462 22.7002C31.9991 22.7002 34.1769 22.7557 35.2615 24.7939L33.2615 26.1898C32.8231 25.3015 32.0946 25.0081 31.6462 25.0081C30.5385 25.0081 30.3077 25.8201 30.3077 26.1898C30.3077 27.227 31.5112 27.6919 32.5273 28.0844C32.7932 28.1871 33.0462 28.2848 33.2615 28.3866C34.3692 28.91 36 29.7666 36 32.463C36 33.8136 34.8672 36.0002 32.0154 36.0002C28.1846 36.0002 27.1692 33.7003 27 33.2879Z" fill="#333333"/>
<path d="M17 33.5587L19.1487 32.1953C19.317 32.7026 19.9713 33.638 20.9205 33.638C21.8698 33.638 22.3557 32.663 22.3557 32.1953V23.0002H24.9982V32.1953C25.041 33.4636 24.3376 36.0002 21.2332 36.0002C18.379 36.0002 17.1924 34.3039 17 33.5587Z" fill="#333333"/>
</g>
</g>
</svg>
