<svg width="48" height="48" viewBox="0 0 48 48" fill="none" xmlns="http://www.w3.org/2000/svg">
<g id="Group 342">
<circle id="Ellipse 1819" cx="24" cy="24" r="24" fill="#8CC84B"/>
<g id="node_js">
<path d="M25.1725 10.2987C24.4627 9.89953 23.5373 9.90132 22.8269 10.2987C19.2689 12.2623 15.7108 14.2264 12.1522 16.1891C11.4597 16.5533 10.9926 17.297 11.0001 18.0688V29.9328C10.9951 30.7197 11.4862 31.4705 12.1965 31.8298C13.2187 32.3736 14.2118 32.9726 15.2524 33.4802C16.4545 34.0709 17.9584 34.2015 19.1752 33.5855C20.1629 33.075 20.6016 31.9395 20.6003 30.896C20.6083 26.9806 20.6016 23.0651 20.6034 19.1496C20.6269 18.9756 20.4962 18.7896 20.3064 18.7938C19.8517 18.7866 19.3964 18.7896 18.9417 18.7926C18.7699 18.7764 18.6022 18.9191 18.6152 19.0918C18.6091 22.982 18.6164 26.8734 18.6115 30.7642C18.6214 31.3024 18.2578 31.8196 17.7391 32.0014C16.5412 32.4213 13.122 30.2012 13.122 30.2012C12.9965 30.1431 12.9168 30.007 12.9291 29.8718C12.9291 25.9576 12.9297 22.0433 12.9291 18.1297C12.9119 17.9719 13.0091 17.8298 13.154 17.7654C16.7003 15.8134 20.2448 13.8565 23.7911 11.9034C23.9143 11.8212 24.086 11.8214 24.2089 11.904C27.7552 13.8565 31.3003 15.8116 34.8472 17.7637C34.9926 17.828 35.0857 17.9725 35.0709 18.1297C35.0703 22.0433 35.0721 25.9576 35.0697 29.8713C35.0802 30.0098 35.0086 30.144 34.8793 30.2048C31.3661 32.1462 27.8129 34.025 24.3315 36.0228C24.1796 36.1099 24.0075 36.2086 23.8373 36.1126C22.9218 35.6062 22.0174 35.0801 21.1049 34.5688C21.0057 34.5069 20.8794 34.4803 20.7759 34.5496C20.3668 34.7652 19.982 34.9398 19.5122 35.1258C18.8524 35.387 18.9578 35.4938 19.5529 35.8405C20.62 36.4444 21.6889 37.0459 22.756 37.6504C23.4585 38.0888 24.4024 38.12 25.1275 37.7149C28.6861 35.7538 32.2436 33.7904 35.8029 31.8293C36.5113 31.468 37.0049 30.7202 36.9999 29.9327V18.0688C37.0068 17.3126 36.5576 16.5823 35.886 16.2126C32.3156 14.2395 28.7435 12.2706 25.1725 10.2987Z" fill="white"/>
<path d="M30.5419 19.2062C29.1452 18.459 27.4836 18.4192 25.9315 18.5169C24.8102 18.6277 23.6309 18.9371 22.814 19.7409C21.9761 20.5489 21.7937 21.8537 22.1917 22.9085C22.4769 23.6539 23.1948 24.1386 23.9372 24.395C24.8935 24.7326 25.8979 24.837 26.9026 24.9414C27.819 25.0366 28.7357 25.1319 29.6165 25.4042C29.9763 25.5234 30.3953 25.7058 30.5055 26.0973C30.6073 26.5609 30.4957 27.0998 30.1193 27.4219C28.9237 28.3682 25.5979 28.2232 24.4166 27.4784C23.939 27.1611 23.7332 26.5994 23.6495 26.0641C23.6402 25.8973 23.5059 25.7443 23.3248 25.757C22.8713 25.7516 22.4178 25.7528 21.9643 25.7564C21.8061 25.7431 21.6416 25.8557 21.6329 26.0172C21.5397 28.4689 23.7914 29.5377 25.9039 29.773C27.1108 29.888 28.3442 29.8814 29.5327 29.6224C30.4261 29.419 31.3219 29.0444 31.9369 28.3563C32.6953 27.52 32.8444 26.2749 32.5043 25.2332C32.2443 24.4559 31.5012 23.9573 30.7416 23.7008C29.7086 23.3466 28.4844 23.1562 27.5488 23.0671C26.1889 22.9376 24.5729 22.9905 24.188 22.0969C24.0345 21.629 24.1651 21.048 24.5951 20.7602C25.7328 19.9885 28.0483 20.091 29.2265 20.6675C29.7675 20.9384 30.081 21.4948 30.2104 22.0565C30.2344 22.2215 30.3454 22.3937 30.5364 22.3865C30.9868 22.3955 31.4372 22.3889 31.8875 22.3895C32.0422 22.4003 32.2116 22.313 32.2418 22.1546C32.2227 20.9806 31.6232 19.7788 30.5419 19.2062Z" fill="white"/>
</g>
</g>
</svg>
